<svg version="1.2" xmlns="http://www.w3.org/2000/svg" viewBox="0 0 708 477" width="708" height="477">
	<title>logovector_adobe_express-svg</title>
	<style>
		.s0 { fill: #0e0e0e } 
		.s1 { fill: #101010 } 
		.s2 { fill: #111111 } 
		.s3 { fill: #121212 } 
		.s4 { fill: #131313 } 
		.s5 { fill: #0f0f0f } 
		.s6 { fill: #0c0c0c } 
	</style>
	<path id="Layer" class="s0" d="m414.2 178c0 15.5 0 30.4 0 45.9-20.7 0-40.6 0-60.8 0 0-9.9 0-19.8 0-30 2.7 0 5.3 0 8.2 0 0 6.9 0 13.7 0 20.8 14.5 0 28.7 0 43.6 0 0-3 0.1-6.1 0-9.2 0-10.1-0.3-20.3-0.2-30.4 0.1-3.3-0.8-5.1-3.9-6.6-13.2-6.3-26.2-13.1-39.5-19.3-2.2-1-5.6-1.1-7.8-0.1-13.6 6.3-27 13-40.3 19.8-1.6 0.8-3.3 3.1-3.3 4.7-0.2 30.3-0.1 60.7-0.1 91 0 0.6 0.2 1.3 0.4 2.3 48.7 0 97.3 0 146.5 0 0.1-1.6 0.2-3.2 0.2-4.8 0-37.6 0-75.3 0.1-113 0.1-3.6-1.2-5.2-4.3-6.7q-45.8-22.9-91.5-46.1c-2.9-1.4-5-1.3-7.8 0.1-30.5 15.4-61 30.7-91.6 45.9-3.3 1.6-4.5 3.4-4.5 7.2 0.2 38.9 0.1 77.9 0.1 116.9 0 1.8 0 3.6 0 5.7-3.1 0-5.7 0-9 0q0-2.4 0-4.8c0-41.4 0-82.7 0-124 0-3 0.4-4.8 3.4-6.3q50.8-25.1 101.5-50.6c3-1.5 5.3-1.3 8.3 0.2 33.4 16.8 67 33.5 100.5 50.2 2.3 1.2 4 2.2 4 5.5-0.2 43.6-0.1 87.3-0.1 131 0 0.9-0.2 1.9-0.3 3-55 0-109.8 0-165.2 0 0-1.7 0-3.3 0-4.9 0-33.8 0-67.7-0.1-101.5 0-3.4 0.9-5.3 4.1-6.9 16.4-8.1 32.8-16.4 49.1-24.8 2.6-1.3 4.7-1.3 7.3 0.1 15.7 8.1 31.4 16.2 47.3 23.8 4.4 2.2 6.5 4.6 5.7 9.4-0.3 2 0 4 0 6.5z"/>
	<path id="Layer" class="s1" d="m361 319.4c68.4 0 136.4 0 204.6 0 0 3 0 5.6 0 8.6-138.6 0-277.1 0-416 0 0-2.6 0-5.3 0-8.6 70.4 0 140.6 0 211.4 0z"/>
	<path id="Layer" class="s2" d="m274 293.4c80.1 0 159.7 0 239.6 0 0 3.1 0 5.8 0 8.8-104.2 0-208 0-312.2 0 0-2.8 0-5.5 0-8.8 24.2 0 48.2 0 72.6 0z"/>
	<path id="Layer" fill-rule="evenodd" class="s3" d="m444 445.3c-8 0-15.4 0-23.2 0 0-23.1 0-45.7 0-68.3 12.8 0 25.4-0.5 37.9 0.1 7.3 0.4 12.9 4.6 15.3 11.8 2.5 7.5 0.2 13.7-5.8 18.7-0.6 0.5-1.4 0.9-2.4 1.6 1.6 1.1 2.5 1.7 3.4 2.3q11.3 6.4 9 19.2c-1.4 7.3-7.3 12.7-15.3 13.5-6.1 0.6-12.3 0.7-18.9 1.1zm20.5-29.7c-12-3.9-24.2-2.4-36.6-2 0 8.6 0 16.9 0 26.2 11.2-0.5 22-0.9 32.9-1.6 5.7-0.3 9.1-4 10.1-9.4 0.9-5.4-0.8-9.9-6.4-13.2zm-14.1-33.2c-7.4 0-14.8 0-22.5 0 0 8.5 0 16.4 0 24.9 3.1 0 6 0.1 8.9-0.1 7.6-0.4 15.2-0.5 22.6-1.8 5.7-1 8.1-5.5 7.8-11.6-0.2-5.2-3.2-8.9-8.5-10.2-2.4-0.6-4.9-0.8-8.3-1.2z"/>
	<path id="Layer" class="s4" d="m210.3 420c0-14.8 0-29.1 0-43.3 4.5-1.3 7.2 0.3 9.8 3.5 12 15.4 24.2 30.5 36.3 45.8 1 1.2 2.1 2.4 4.1 4.6 0-18.7 0-36.2 0-54 2.9 0 5.2 0 7.8 0 0 23 0 46 0 69.1-4.5 0-7.7-2.1-10.5-5.6-12.6-16.1-25.3-32.1-38.8-49 0 18.4 0 35.9 0 53.8-3.1 0-5.7 0-8.7 0 0-8.2 0-16.3 0-24.9z"/>
	<path id="Layer" class="s5" d="m526.8 436.9c0 2.9 0 5.4 0 8.1-2.8 0-5.3 0-7.8 0 0-23 0-45.7 0-68.4 4.2-1.2 6.8 0.3 9.3 3.4 13.2 16.8 26.5 33.4 40.5 50.9 0-18.6 0-36.3 0-54.3 3 0 5.4 0 8.1 0 0 22.7 0 45.3 0 68.2-3.9 1.2-6.8 0.4-9.6-3.3-12.9-16.7-26.2-33.2-40.5-49.6 0 14.9 0 29.7 0 45z"/>
	<path id="Layer" fill-rule="evenodd" class="s1" d="m623.2 379.4c1-1.4 2-3 3.1-3 10.8-0.1 21.7-0.4 32.5 0.2 13.6 0.7 22 11.3 18 22.7-1.3 3.8-4.6 7-7.2 10.7 0.4 0.2 1.3 0.9 2.3 1.4 7.5 4.3 10.4 10.4 9 18.7-1.3 7.8-6.7 13.7-15.2 14.1-14 0.6-28.1 0.1-42.5 0.1q0-31.8 0-64.9zm27.2 33.6c-6.6 0-13.2 0-20.2 0 0 6.9 0 12.8 0 18.8 0 2.3 0 4.6 0 7.9 7.2 0 13.9 0.2 20.7 0 4.5-0.2 9-0.6 13.3-1.5 6.1-1.2 9.6-5.7 9.8-11.6 0.2-5.8-3.1-10.2-9.4-11.7-4.3-1.1-8.8-1.3-14.2-1.9zm19.4-21.7c-1.7-4.9-5.1-8-10.3-8.1-9.5-0.3-19.1-0.1-28.9-0.1q0 11.7 0 24.1c8.6 0 17 0.5 25.2-0.2 8-0.6 15.4-3 14-15.7z"/>
	<path id="Layer" fill-rule="evenodd" class="s3" d="m360.5 379.5c14.8 7.3 22.4 22.1 19.4 37.3-3.4 17.1-14.8 27.4-32.6 28.3-10.6 0.6-21.3 0.1-32.2 0.1 0-22.9 0-45.6 0-69 15.1 1.3 30.3-2.6 45.4 3.3zm6.8 13.8c-4.5-3-8.6-7.7-13.5-8.7-10.2-2.1-20.9-2.1-31.6-3 0 20.1 0 38.7 0 57.6 7.6 0 14.7 0.2 21.8-0.1 10.9-0.5 20.3-4.2 25.6-14.5 5.4-10.4 4.6-20.8-2.3-31.3z"/>
	<path id="Layer" fill-rule="evenodd" class="s1" d="m165.1 422.7c3.4 7.5 6.7 14.6 9.9 21.7-6.6 2-8.1 1.9-9.7-4-3.1-10.9-9.3-15.1-20.5-13.3-6.3 1-13 0.4-19.5 0.1-3.3-0.2-5.2 0.7-6.3 3.9-1 2.9-2.8 5.4-3.6 8.2-1.6 5.2-4.5 7.6-10.4 5.3 2.7-5.9 5.4-12.1 8.1-18.2 7-15.2 14.1-30.4 21-45.7 1.3-2.8 2.7-4.5 6.2-4.6 3.6 0 4.5 2.1 5.6 4.6 6.4 13.9 12.7 27.8 19.2 42zm-26.6-1.5c5.9 0 11.8 0 18.4 0-5.8-12.9-11.1-24.8-17-37.9-5.8 13.3-11.1 25.3-16.7 37.9 5.3 0 9.8 0 15.3 0z"/>
	<path id="Layer" class="s6" d="m41 382.2c0 19.1 0 37.7 0 56.8 12.8 0 25.6 0 38.7 0 0.1 2.2 0.2 3.9 0.3 6-15.5 0-30.7 0-46.3 0 0-22.7 0-45.4 0-68.4 2.3 0 4.4 0 7.3 0 0 1.6 0 3.4 0 5.6z"/>
</svg>